<svg width="21" height="22" viewBox="0 0 21 22" fill="none" xmlns="http://www.w3.org/2000/svg">
<path d="M19.8333 0H1.16667C0.857247 0 0.560501 0.128769 0.341709 0.357981C0.122916 0.587192 0 0.898069 0 1.22222V20.7778C0 21.1019 0.122916 21.4128 0.341709 21.642C0.560501 21.8712 0.857247 22 1.16667 22H11.2175V13.4933H8.48983V10.1628H11.2175V7.71833C11.2175 4.87667 12.8742 3.32811 15.3008 3.32811C16.1163 3.32567 16.933 3.36967 17.745 3.45889V6.41667H16.0708C14.7548 6.41667 14.4982 7.07422 14.4982 8.03611V10.1567H17.6447L17.2363 13.4872H14.497V22H19.8333C20.1428 22 20.4395 21.8712 20.6583 21.642C20.8771 21.4128 21 21.1019 21 20.7778V1.22222C21 0.898069 20.8771 0.587192 20.6583 0.357981C20.4395 0.128769 20.1428 0 19.8333 0V0Z" fill="#565656"/>
</svg>
