<svg width="22" height="22" viewBox="0 0 22 22" fill="none" xmlns="http://www.w3.org/2000/svg">
<path fill-rule="evenodd" clip-rule="evenodd" d="M6.28613 0.0641739C7.42667 0.011668 7.79032 0 10.6957 0C13.601 0 13.9646 0.0126403 15.1042 0.0641739C16.2438 0.115707 17.0216 0.297534 17.7023 0.561036C18.415 0.830372 19.0616 1.25139 19.5964 1.7959C20.1409 2.32971 20.5609 2.97534 20.8293 3.68903C21.0938 4.36966 21.2746 5.14753 21.3271 6.28515C21.3796 7.42764 21.3913 7.7913 21.3913 10.6957C21.3913 13.601 21.3787 13.9646 21.3271 15.1052C21.2756 16.2428 21.0938 17.0207 20.8293 17.7013C20.5609 18.4151 20.1402 19.0618 19.5964 19.5964C19.0616 20.1409 18.415 20.5609 17.7023 20.8293C17.0216 21.0938 16.2438 21.2746 15.1061 21.3271C13.9646 21.3796 13.601 21.3913 10.6957 21.3913C7.79032 21.3913 7.42667 21.3787 6.28613 21.3271C5.1485 21.2756 4.37063 21.0938 3.69 20.8293C2.97623 20.5609 2.32953 20.1402 1.79492 19.5964C1.25079 19.0622 0.829705 18.4159 0.561036 17.7023C0.297534 17.0216 0.11668 16.2438 0.0641739 15.1061C0.011668 13.9637 0 13.6 0 10.6957C0 7.79032 0.0126403 7.42667 0.0641739 6.2871C0.115707 5.14753 0.297534 4.36966 0.561036 3.68903C0.830102 2.97542 1.25151 2.32904 1.7959 1.79492C2.32975 1.25091 2.97579 0.82983 3.68903 0.561036C4.36966 0.297534 5.14753 0.11668 6.28515 0.0641739H6.28613ZM15.0177 1.98939C13.8898 1.93786 13.5514 1.92716 10.6957 1.92716C7.83991 1.92716 7.50154 1.93786 6.37364 1.98939C5.33032 2.03704 4.76443 2.21108 4.38716 2.35791C3.88836 2.55237 3.53151 2.78281 3.15716 3.15716C2.8023 3.50239 2.52921 3.92266 2.35791 4.38716C2.21108 4.76443 2.03704 5.33032 1.98939 6.37364C1.93786 7.50154 1.92716 7.83991 1.92716 10.6957C1.92716 13.5514 1.93786 13.8898 1.98939 15.0177C2.03704 16.061 2.21108 16.6269 2.35791 17.0041C2.52904 17.4679 2.80226 17.889 3.15716 18.2341C3.50234 18.589 3.92336 18.8623 4.38716 19.0334C4.76443 19.1802 5.33032 19.3543 6.37364 19.4019C7.50154 19.4534 7.83894 19.4641 10.6957 19.4641C13.5524 19.4641 13.8898 19.4534 15.0177 19.4019C16.061 19.3543 16.6269 19.1802 17.0041 19.0334C17.5029 18.8389 17.8598 18.6085 18.2341 18.2341C18.589 17.889 18.8623 17.4679 19.0334 17.0041C19.1802 16.6269 19.3543 16.061 19.4019 15.0177C19.4534 13.8898 19.4641 13.5514 19.4641 10.6957C19.4641 7.83991 19.4534 7.50154 19.4019 6.37364C19.3543 5.33032 19.1802 4.76443 19.0334 4.38716C18.8389 3.88836 18.6085 3.53151 18.2341 3.15716C17.8889 2.80233 17.4686 2.52924 17.0041 2.35791C16.6269 2.21108 16.061 2.03704 15.0177 1.98939V1.98939ZM9.32953 13.9928C10.0925 14.3104 10.942 14.3533 11.7331 14.1141C12.5241 13.8749 13.2076 13.3685 13.6667 12.6814C14.1259 11.9943 14.3322 11.1691 14.2505 10.3467C14.1689 9.52432 13.8042 8.75582 13.2189 8.17245C12.8457 7.79954 12.3945 7.514 11.8978 7.33639C11.401 7.15878 10.8711 7.09351 10.3461 7.14529C9.8211 7.19708 9.31412 7.36461 8.86164 7.63585C8.40917 7.90709 8.02246 8.27527 7.72936 8.71389C7.43626 9.15252 7.24406 9.65068 7.16659 10.1725C7.08912 10.6943 7.12831 11.2268 7.28135 11.7317C7.43438 12.2365 7.69745 12.7012 8.05161 13.0922C8.40577 13.4832 8.84222 13.7908 9.32953 13.9928ZM6.80827 6.80827C7.31877 6.29777 7.92482 5.89282 8.59182 5.61654C9.25881 5.34026 9.9737 5.19806 10.6957 5.19806C11.4176 5.19806 12.1325 5.34026 12.7995 5.61654C13.4665 5.89282 14.0725 6.29777 14.583 6.80827C15.0935 7.31877 15.4985 7.92482 15.7748 8.59182C16.051 9.25881 16.1932 9.9737 16.1932 10.6957C16.1932 11.4176 16.051 12.1325 15.7748 12.7995C15.4985 13.4665 15.0935 14.0725 14.583 14.583C13.552 15.614 12.1537 16.1932 10.6957 16.1932C9.2376 16.1932 7.83927 15.614 6.80827 14.583C5.77727 13.552 5.19806 12.1537 5.19806 10.6957C5.19806 9.2376 5.77727 7.83927 6.80827 6.80827V6.80827ZM17.4125 6.01679C17.539 5.89746 17.6403 5.75395 17.7104 5.59477C17.7804 5.4356 17.8178 5.26398 17.8203 5.09009C17.8229 4.9162 17.7905 4.74357 17.7251 4.58242C17.6597 4.42126 17.5627 4.27487 17.4397 4.1519C17.3167 4.02892 17.1703 3.93187 17.0092 3.8665C16.848 3.80112 16.6754 3.76874 16.5015 3.77127C16.3276 3.77381 16.156 3.8112 15.9968 3.88125C15.8377 3.9513 15.6941 4.05258 15.5748 4.17908C15.3427 4.42511 15.2157 4.7519 15.2206 5.09009C15.2255 5.42828 15.3621 5.75123 15.6012 5.99038C15.8404 6.22954 16.1633 6.36608 16.5015 6.37101C16.8397 6.37594 17.1665 6.24888 17.4125 6.01679V6.01679Z" fill="#565656"/>
</svg>
