<svg width="202" height="38" viewBox="0 0 202 38" fill="none" xmlns="http://www.w3.org/2000/svg">
<path d="M183.626 0.764404C173.479 0.764404 165.252 9.04858 165.252 19.2673C165.252 29.4859 173.484 37.7644 183.626 37.7644C193.774 37.7644 202 29.4802 202 19.2616C202 9.04289 193.774 0.764404 183.626 0.764404ZM181.016 22.9883L178.405 23.6597V20.9457L181.016 20.2743V22.9883ZM184.937 26.055V28.769L182.327 29.4404V26.7264V14.505L184.937 13.8336V26.055ZM190.158 18.3341C190.158 19.6883 189.248 20.866 187.948 21.2017L186.242 21.6398V18.9259L186.813 18.7779C187.248 18.6641 187.547 18.2716 187.547 17.8221V13.1565L190.158 12.4851V18.3341ZM176.185 14.7269V12.0129L187.547 9.08841C188.869 8.74703 190.158 9.7541 190.158 11.131L176.185 14.7269Z" fill="white"/>
<path d="M5.44098 12.7752H0V11.3528H12.5205V12.7752H7.07949V26.9425H5.44098V12.7752Z" fill="white"/>
<path d="M32.9341 11.3528V26.9425H31.3182V19.7508H21.6283V26.9425H19.9955V11.3528H21.6283V18.2999H31.3182V11.3528H32.9341Z" fill="white"/>
<path d="M53.7883 25.5201V26.9425H42.8385V11.3528H53.4606V12.7752H44.477V18.3226H52.4831V19.728H44.477V25.5201H53.7883Z" fill="white"/>
<path d="M70.7779 19.0054C71.3373 18.5389 71.6198 17.8732 71.6198 17.014C71.6198 16.1378 71.3373 15.4665 70.7779 14.9999C70.2186 14.5333 69.3993 14.3001 68.3202 14.3001H65.3991V19.711H68.3202C69.3993 19.7053 70.2129 19.472 70.7779 19.0054ZM72.0944 12.0413C73.1058 12.5021 73.8798 13.1564 74.4279 14.0042C74.9703 14.852 75.2471 15.8533 75.2471 17.014C75.2471 18.1577 74.9759 19.1534 74.4279 20.0125C73.8855 20.866 73.1058 21.5203 72.0944 21.9698C71.083 22.4249 69.8909 22.6468 68.5236 22.6468H65.4048V26.9482H61.8226V11.3585H68.5236C69.8909 11.3528 71.083 11.5804 72.0944 12.0413Z" fill="white"/>
<path d="M92.8469 23.5003C93.5814 23.0793 94.1634 22.4876 94.5815 21.7308C94.9996 20.9741 95.2143 20.115 95.2143 19.1477C95.2143 18.1805 95.0053 17.3213 94.5815 16.5646C94.1634 15.8079 93.5814 15.2162 92.8469 14.7951C92.1068 14.3741 91.2819 14.1636 90.3666 14.1636C89.4513 14.1636 88.6264 14.3741 87.8919 14.7951C87.1574 15.2162 86.5754 15.8079 86.1573 16.5646C85.7392 17.3213 85.5302 18.1805 85.5302 19.1477C85.5302 20.115 85.7392 20.9741 86.1573 21.7308C86.5754 22.4876 87.1574 23.0793 87.8919 23.5003C88.6264 23.9214 89.4569 24.1319 90.3666 24.1319C91.2875 24.1376 92.1124 23.9271 92.8469 23.5003ZM86.0273 26.1631C84.7391 25.4633 83.7278 24.5017 82.9989 23.2784C82.2701 22.0552 81.9028 20.6783 81.9028 19.1477C81.9028 17.6172 82.2644 16.2403 82.9989 15.017C83.7278 13.7937 84.7391 12.8322 86.0273 12.1324C87.3156 11.4325 88.7676 11.0854 90.3722 11.0854C91.9825 11.0854 93.4232 11.4325 94.7058 12.1324C95.9884 12.8322 96.9997 13.7937 97.7342 15.017C98.4687 16.2403 98.8416 17.6172 98.8416 19.1477C98.8416 20.6783 98.4744 22.0552 97.7342 23.2784C96.9941 24.5017 95.9884 25.4633 94.7058 26.1631C93.4232 26.8629 91.9768 27.21 90.3722 27.21C88.7676 27.21 87.3156 26.8629 86.0273 26.1631Z" fill="white"/>
<path d="M109.989 11.3528H106.407V26.9425H109.989V11.3528Z" fill="white"/>
<path d="M132.725 11.3528V26.9425H129.787L122.069 17.4749V26.9425H118.526V11.3528H121.493L129.188 20.8204V11.3528H132.725Z" fill="white"/>
<path d="M144.471 14.2943H139.516V11.3528H153.009V14.2943H148.054V26.9425H144.471V14.2943Z" fill="white"/>
</svg>
