<svg width="22" height="22" viewBox="0 0 22 22" fill="none" xmlns="http://www.w3.org/2000/svg">
<path d="M18.1839 3.10982C17.2032 2.12004 16.0353 1.33534 14.7483 0.801442C13.4613 0.267545 12.0809 -0.00487222 10.6876 6.59526e-05C4.84913 6.59526e-05 0.0909128 4.75694 0.085565 10.5968C0.085565 12.4671 0.57489 14.2867 1.49872 15.8978L0 21.3913L5.62055 19.918C7.17543 20.7642 8.91738 21.2077 10.6876 21.2081H10.6929C16.5328 21.2081 21.2896 16.4513 21.295 10.6061C21.2963 9.21306 21.022 7.83352 20.4878 6.54696C19.9536 5.2604 19.1702 4.09225 18.1826 3.10982H18.1839ZM10.6876 19.414C9.10865 19.4145 7.55873 18.9896 6.20078 18.184L5.87992 17.9914L2.54556 18.8658L3.43597 15.613L3.2274 15.2774C2.34476 13.8741 1.87795 12.2493 1.88109 10.5914C1.88109 5.74361 5.83446 1.78891 10.6929 1.78891C11.8504 1.78683 12.9968 2.01388 14.0661 2.45697C15.1354 2.90006 16.1064 3.55042 16.9231 4.37056C17.7427 5.18751 18.3925 6.15864 18.8349 7.22794C19.2773 8.29724 19.5036 9.44355 19.5008 10.6008C19.4954 15.4659 15.5421 19.414 10.6876 19.414ZM15.5207 12.8174C15.2573 12.6851 13.9564 12.0447 13.7118 11.9538C13.4685 11.8669 13.2906 11.8214 13.1168 12.0861C12.939 12.3495 12.431 12.9498 12.2786 13.1223C12.1262 13.3001 11.9684 13.3201 11.7037 13.1891C11.4403 13.0554 10.586 12.7773 9.57525 11.8722C8.78645 11.1703 8.25835 10.3013 8.10059 10.0379C7.94818 9.77319 8.08589 9.63147 8.21825 9.49911C8.33456 9.38146 8.48163 9.18894 8.61398 9.03653C8.74768 8.88411 8.7918 8.77181 8.8787 8.59533C8.9656 8.41618 8.92416 8.26377 8.85865 8.13141C8.7918 7.99905 8.2637 6.69285 8.04043 6.16609C7.82652 5.64602 7.6086 5.71821 7.44549 5.71153C7.29307 5.70217 7.11526 5.70217 6.93745 5.70217C6.80317 5.7055 6.67103 5.73656 6.54932 5.79339C6.42761 5.85022 6.31897 5.93159 6.2302 6.03239C5.98687 6.29711 5.30636 6.93751 5.30636 8.24371C5.30636 9.54992 6.2556 10.8053 6.3893 10.9831C6.52032 11.1609 8.25301 13.8335 10.9122 14.9833C11.5406 15.2574 12.0352 15.4191 12.4216 15.5421C13.0567 15.7454 13.6302 15.7146 14.0875 15.6491C14.5955 15.5716 15.653 15.0074 15.8763 14.3883C16.0956 13.768 16.0956 13.2386 16.0287 13.1276C15.9632 13.0153 15.7854 12.9498 15.5207 12.8174Z" fill="#565656"/>
</svg>
